Coordinates
version=1
nRows=54
nColumns=12
inDegrees=yes

Units are S.I. units (second, meters, Newtons, ...)
Angles are in degrees

endheader
time	SC_y	SC_z	SC_x	AC_y	AC_z	AC_x	GH_y	GH_z	GH_yy	EL_x	PS_y
       0.0               -12.9          16.28          20.57          66.91         -10.95         -1.804         -31.26          56.42         -87.63          115.2          123.6
   0.03002               -12.9          16.28          20.58           66.9         -10.95         -1.807         -31.26          56.43         -87.61          115.2          123.6
   0.06004               -12.9          16.27          20.58           66.9         -10.95         -1.809         -31.26          56.43         -87.59          115.2          123.6
   0.09006               -12.9          16.27          20.59           66.9         -10.95         -1.812         -31.26          56.44         -87.57          115.2          123.6
    0.1201               -12.9          16.27           20.6          66.89         -10.95         -1.815         -31.26          56.44         -87.54          115.2          123.6
    0.1501              -12.91          16.27           20.6          66.89         -10.95         -1.818         -31.26          56.45         -87.52          115.2          123.6
    0.1801              -12.91          16.26          20.61          66.89         -10.94         -1.821         -31.27          56.45         -87.49          115.2          123.6
    0.2101              -12.91          16.26          20.62          66.88         -10.94         -1.825         -31.27          56.46         -87.46          115.2          123.5
    0.2402              -12.92          16.26          20.63          66.88         -10.94         -1.829         -31.27          56.47         -87.43          115.1          123.5
    0.2702              -12.92          16.26          20.64          66.87         -10.94         -1.833         -31.27          56.48          -87.4          115.1          123.5
    0.3002              -12.92          16.25          20.65          66.87         -10.94         -1.837         -31.27          56.48         -87.36          115.1          123.5
    0.3302              -12.93          16.25          20.66          66.86         -10.94         -1.842         -31.27          56.49         -87.32          115.1          123.5
    0.3602              -12.93          16.24          20.67          66.86         -10.93         -1.847         -31.27           56.5         -87.28          115.1          123.5
    0.3903              -12.94          16.24          20.68          66.85         -10.93         -1.853         -31.28          56.51         -87.24          115.1          123.5
    0.4203              -12.94          16.23          20.69          66.84         -10.93         -1.859         -31.28          56.52         -87.19          115.1          123.4
    0.4503              -12.95          16.23          20.71          66.84         -10.93         -1.866         -31.28          56.54         -87.14          115.0          123.4
    0.4803              -12.96          16.22          20.72          66.83         -10.92         -1.873         -31.28          56.55         -87.08          115.0          123.4
    0.5103              -12.96          16.22          20.74          66.82         -10.92          -1.88         -31.29          56.57         -87.02          115.0          123.4
    0.5404              -12.97          16.21          20.76          66.81         -10.92         -1.889         -31.29          56.58         -86.95          115.0          123.3
    0.5704              -12.98           16.2          20.78           66.8         -10.92         -1.898         -31.29           56.6         -86.87          114.9          123.3
    0.6004              -12.99          16.19           20.8          66.79         -10.91         -1.908          -31.3          56.62         -86.79          114.9          123.3
    0.6304               -13.0          16.19          20.83          66.77         -10.91         -1.919          -31.3          56.64          -86.7          114.9          123.3
    0.6604              -13.01          16.18          20.85          66.76          -10.9         -1.932         -31.31          56.66          -86.6          114.9          123.2
    0.6905              -13.02          16.16          20.88          66.75          -10.9         -1.945         -31.31          56.69         -86.49          114.8          123.2
    0.7205              -13.03          16.15          20.92          66.73         -10.89         -1.961         -31.32          56.72         -86.37          114.8          123.1
    0.7505              -13.05          16.14          20.96          66.71         -10.89         -1.978         -31.32          56.75         -86.24          114.7          123.1
    0.7805              -13.07          16.12           21.0          66.69         -10.88         -1.997         -31.33          56.78         -86.08          114.7          123.0
    0.8105              -13.09          16.11          21.05          66.66         -10.87         -2.018         -31.34          56.82         -85.91          114.6          123.0
    0.8406              -13.11          16.09           21.1          66.64         -10.86         -2.042         -31.35          56.87         -85.72          114.5          122.9
    0.8706              -13.13          16.06          21.16          66.61         -10.85          -2.07         -31.36          56.92          -85.5          114.5          122.8
    0.9006              -13.16          16.04          21.23          66.57         -10.84         -2.101         -31.37          56.98         -85.24          114.4          122.7
    0.9306              -13.19          16.01          21.31          66.53         -10.83         -2.137         -31.38          57.05         -84.96          114.3          122.6
    0.9606              -13.23          15.98           21.4          66.48         -10.81         -2.178          -31.4          57.13         -84.62          114.2          122.5
    0.9907              -13.27          15.94          21.51          66.43         -10.79         -2.227         -31.42          57.22         -84.23          114.0          122.3
     1.021              -13.32          15.89          21.63          66.36         -10.77         -2.283         -31.44          57.32         -83.78          113.9          122.2
     1.051              -13.38          15.84          21.78          66.29         -10.75          -2.35         -31.46          57.45         -83.25          113.7          122.0
     1.081              -13.45          15.78          21.96           66.2         -10.72         -2.429         -31.49           57.6         -82.61          113.5          121.7
     1.111              -13.54           15.7          22.17          66.09         -10.68         -2.523         -31.53          57.78         -81.85          113.2          121.4
     1.141              -13.64          15.61          22.42          65.96         -10.64         -2.638         -31.57          57.99         -80.93          112.9          121.1
     1.171              -13.76          15.49          22.73           65.8         -10.58         -2.778         -31.62          58.26          -79.8          112.5          120.7
     1.201              -13.92          15.35          23.11          65.61         -10.52         -2.951         -31.69          58.58         -78.41          112.0          120.1
     1.231              -14.11          15.18          23.59          65.36         -10.44         -3.167         -31.77          58.99         -76.68          111.4          119.5
     1.261              -14.35          14.96           24.2          65.06         -10.34         -3.438         -31.87           59.5          -74.5          110.6          118.7
     1.291              -14.66          14.68          24.96          64.67         -10.21         -3.783          -32.0          60.15         -71.73          109.6          117.6
     1.321              -15.05          14.33          25.94          64.17         -10.04         -4.225         -32.16          60.99         -68.18          108.4          116.3
     1.351              -15.55          13.87           27.2          63.53         -9.828         -4.792         -32.37          62.06         -63.62          106.8          114.6
     1.381               -16.2          13.29           28.8          62.71         -9.556         -5.516         -32.64          63.42          -57.8          104.8          112.4
     1.411              -17.01          12.56          30.82          61.68         -9.214         -6.427         -32.98          65.14         -50.49          102.2          109.7
     1.441               -18.0          11.66          33.28          60.42         -8.797         -7.537         -33.39          67.23         -41.57          99.09          106.3
     1.471              -19.14          10.63          36.14          58.97         -8.314         -8.823         -33.87          69.66         -31.24          95.47          102.4
     1.501              -20.38          9.506          39.23          57.39         -7.791         -10.22         -34.39          72.28         -20.05          91.55          98.24
     1.531              -21.62          8.385          42.31          55.82         -7.268         -11.61         -34.91          74.91         -8.856          87.63          94.04
     1.561              -22.76          7.349          45.17          54.37         -6.785         -12.89         -35.39          77.34          1.479          84.02          90.16
     1.591              -23.75          6.455          47.63          53.11         -6.368          -14.0          -35.8          79.43           10.4          80.89          86.81
